<svg id="Layer_1" data-name="Layer 1" xmlns="http://www.w3.org/2000/svg" viewBox="0 0 88.06 90.35"><title>icons8-wallet-90</title><path d="M420,409.66c0-10.76.05-21.52,0-32.28-.05-8.47-4.78-13.36-13-13.38q-30.94-.08-61.91,0c-8.24,0-13,4.92-13,13.36,0,21.18,0,55.78,0,76.95l13,0q30.94.08,61.91,0l13.07,0C420.08,443.9,420,420.08,420,409.66ZM340,376c0-2.46,1.74-3.6,5.24-3.6h61.44c3.46,0,5.32,1.06,5.31,3.54v4.66H340C340,379,340,377.51,340,376Zm4.91,29.32h62.25a4.49,4.49,0,0,1,4.5,4.5v6.94h-27.1c-1.48,4.43-3.57,8.27-8.78,8.1-4.74-.15-6.92-3.41-8.11-7.9H340.41v-7.14A4.49,4.49,0,0,1,344.91,405.35Zm-4.48-8.68v-5.08c0-1.79,2-3.23,4.5-3.23h62.18c2.48,0,4.5,1.44,4.5,3.23v5.08ZM412,446.36c-18.3,0-71.59,0-71.59,0s0-3.65.11-21.35c6.54,0,13.15-.11,19.76.11,1.2,0,2.54,1.27,3.5,2.26,7.38,7.63,17.12,7.58,24.57-.1a6.78,6.78,0,0,1,4-2.17c6.29-.24,12.6-.11,19.62-.11Z" transform="translate(-331.98 -363.97)" fill="#fff"/></svg>